# Blender v2.79 (sub 0) OBJ File: 'testCube.blend'
# www.blender.org
mtllib testCube.mtl
o Cube.001
v 1.000000 -1.000000 -1.000000
v 1.000000 -1.000000 1.000000
v -1.000000 -1.000000 1.000000
v -1.000000 -1.000000 -1.000000
v 1.000000 1.000000 -0.999999
v -1.000000 1.000000 -1.000000
v -1.000000 1.000000 1.000000
v 0.999999 1.000000 1.000001
vt 1.000000 0.000000
vt 0.000144 1.000144
vt 1.000000 1.000144
vt 1.000000 1.000144
vt 0.000144 0.000000
vt 1.000000 0.000000
vt 0.000144 0.000000
vt 1.000000 0.000000
vt 1.000000 1.000144
vt 0.000144 0.000000
vt 0.000144 1.000144
vt 1.000000 0.000000
vt 0.000144 1.000144
vt 0.000144 1.000144
vt 1.000000 1.000144
vt 0.000144 0.000000
vn 0.0000 -1.0000 -0.0000
vn -0.0000 1.0000 0.0000
vn 1.0000 0.0000 0.0000
vn -0.0000 -0.0000 1.0000
vn -1.0000 -0.0000 0.0000
vn 0.0000 0.0000 -1.0000
usemtl Material.001
s 1
f 2/1/1 4/2/1 1/3/1
f 5/4/2 7/5/2 8/6/2
f 5/4/3 2/7/3 1/8/3
f 8/9/4 3/10/4 2/1/4
f 7/11/5 4/12/5 3/10/5
f 1/8/6 6/13/6 5/4/6
f 2/1/1 3/10/1 4/2/1
f 5/4/2 6/13/2 7/5/2
f 5/4/3 8/14/3 2/7/3
f 8/9/4 7/11/4 3/10/4
f 7/11/5 6/15/5 4/12/5
f 1/8/6 4/16/6 6/13/6
